<svg width="170" height="50" viewBox="0 0 170 50" fill="none" xmlns="http://www.w3.org/2000/svg">
<path fill-rule="evenodd" clip-rule="evenodd" d="M152.708 5.80006C158.686 5.80006 163.769 7.81256 166.649 11.3188L166.668 11.3126C168.903 14.0502 169.757 17.6707 168.982 21.1251C168.38 24.1313 166.908 26.8924 164.752 29.0626C164.951 29.2142 165.133 29.3883 165.293 29.5813C165.91 30.3337 166.161 31.3238 165.977 32.2813C165.809 33.0909 165.383 33.8236 164.764 34.3688H165.517L164.167 41.5126H163.812L163.626 42.4938H164.117L162.767 49.6376H135.581L135.395 48.2501H134.773L134.15 49.6438H125.354C124.697 49.7593 124.03 49.8178 123.363 49.8188C122.262 49.8087 121.165 49.6788 120.091 49.4313L120.054 49.6376H96.9549L97.1228 48.7063C95.4654 49.4575 93.6657 49.8392 91.8474 49.8251C89.9188 49.8865 88.0136 49.3874 86.3605 48.3876L86.1241 49.6376H69.6508L69.9432 48.0188L68.954 49.6376H61.6692V49.4501L61.5759 49.6376H1.02035V34.3751H12.9274C9.31282 33.5583 6.05353 31.6002 3.62696 28.7876C1.03641 25.623 0.026093 21.4433 0.883484 17.4376C2.85555 7.66256 13.7735 5.83187e-05 25.7676 5.83187e-05C28.9899 -0.00585511 32.1975 0.43797 35.2982 1.31881L37.0339 1.81881L35.5035 11.1563C39.4352 7.83131 44.9782 5.80006 51.1183 5.80006C57.0905 5.80006 62.1731 7.81256 65.0534 11.3188C65.296 11.6001 65.5138 11.9188 65.7191 12.2251C68.9167 8.00006 75.0133 5.80006 80.6496 5.80006C83.4144 5.76154 86.1605 6.26027 88.7369 7.26881L89.079 6.18131H116.452L115.431 9.55006C119.147 7.1073 123.489 5.80426 127.929 5.80006C130.549 5.79972 133.154 6.17431 135.668 6.91256L137.373 7.42506L136.751 11.4688C140.695 7.96256 146.387 5.80006 152.708 5.80006ZM150.114 41.9688H150.947L152.216 35.2001L151.358 35.3251L150.114 41.9688ZM131.488 20.3563C131.401 20.8001 131.345 21.2376 131.301 21.6688C129.733 22.8142 127.852 23.447 125.914 23.4813C124.843 23.5517 123.793 23.1555 123.034 22.3938C122.723 22.0286 122.601 21.538 122.704 21.0688C123.034 19.3688 125.329 17.8751 127.618 17.8751C129.122 17.9018 130.57 18.4493 131.718 19.4251L131.689 19.5348L131.689 19.5351C131.617 19.8071 131.543 20.0866 131.488 20.3563ZM132.458 35.8626L133.354 34.3813L140.203 34.3876C137.7 33.5972 135.463 32.1262 133.74 30.1376C133.622 29.9949 133.518 29.8451 133.414 29.6963L133.37 29.632C133.352 29.6067 133.335 29.5815 133.317 29.5563L132.29 34.0688L131.245 34.4501C130.888 34.5762 130.525 34.6826 130.157 34.7688C130.694 34.9455 131.215 35.1715 131.712 35.4438L132.458 35.8626ZM142.425 35.0063L142.07 36.8813L141.572 34.7938C141.852 34.8688 142.132 34.9376 142.425 35.0001V35.0063ZM153.554 18.9126C152.904 18.2974 152.023 17.9924 151.134 18.0751H151.121C148.508 18.0751 146.829 19.6813 146.524 21.2688C146.377 21.7887 146.473 22.3473 146.785 22.7876C147.46 23.4058 148.364 23.7079 149.274 23.6188C151.619 23.6188 153.504 22.3313 153.859 20.4938C153.999 19.9475 153.887 19.3667 153.554 18.9126ZM99.5803 35.7501L99.5747 35.7464L99.686 35.1626H98.5413C98.9004 35.3298 99.2459 35.525 99.5747 35.7464L99.574 35.7501H99.5803ZM93.2781 42.0001C93.0875 42.1493 92.854 42.2326 92.6124 42.2376C92.8019 42.0863 93.0361 42.0027 93.2781 42.0001ZM91.4867 18.2501L91.4848 18.2564L88.0714 18.3876C88.4247 18.7239 88.7417 19.0968 89.017 19.5001C89.6705 20.4686 90.0549 21.5949 90.1305 22.7626L91.4848 18.2564L91.4867 18.2563V18.2501ZM47.7092 23.6188C50.0545 23.6188 51.9395 22.3375 52.2941 20.4938L52.2443 20.4625C52.3827 19.9182 52.2709 19.3401 51.9395 18.8875C51.2898 18.2724 50.4084 17.9674 49.5195 18.05C46.9067 18.05 45.227 19.6563 44.9222 21.2438C44.7763 21.7646 44.8748 22.3237 45.1897 22.7625C45.8672 23.3998 46.7857 23.712 47.7092 23.6188ZM68.0024 35.1126L67.9588 35.2063V35.1063H68.0148L68.0024 35.1126ZM86.6404 34.3813L88.2268 29.1251C86.4538 31.6126 83.6543 33.3438 80.5438 34.3813H86.6404ZM88.8923 35.1688H89.2282L88.8549 35.3313L88.8861 35.1688H88.8923ZM19.2418 19.8438C20.0257 20.8063 21.5311 21.3813 23.273 21.3813V21.3875C25.7496 21.3519 28.1596 20.5774 30.197 19.1625C30.4881 18.1279 30.8907 17.1282 31.3977 16.1813C29.763 14.6596 27.6287 13.7944 25.4006 13.75C22.2652 13.75 19.2294 15.6813 18.7752 17.9688C18.6266 18.6328 18.7997 19.3282 19.2418 19.8438ZM59.1308 32.2063L61.1091 33.1001C62.271 33.6055 63.4688 34.0233 64.6924 34.3501H61.0158L60.6177 35.1438L60.5679 34.3501H54.1976C55.9216 33.8231 57.5776 33.093 59.1308 32.1751V32.2063ZM108.837 34.3751L107.4 41.9688H108.259L109.696 34.3751H115.842C113.572 33.5646 111.554 32.1703 109.988 30.3313C107.75 27.5944 106.874 23.9835 107.605 20.5188C107.764 19.7458 107.984 18.9871 108.265 18.2501L106.778 18.1938L101.863 34.3751H108.837ZM29.7242 33.8063L30.7755 33.4313L31.69 29.5188C31.7587 29.6107 31.8246 29.7053 31.8916 29.8013L31.8916 29.8013L31.8917 29.8013C31.9704 29.9142 32.0506 30.029 32.138 30.1438C33.8609 32.1325 36.098 33.6034 38.6016 34.3938H27.4846C28.2459 34.2591 28.9965 34.069 29.7304 33.8251L29.7242 33.8063ZM158.412 33.3876C157.559 33.7679 156.685 34.0976 155.793 34.3751L159.041 34.3626C159.021 34.3403 158.998 34.3192 158.975 34.2983C158.947 34.2723 158.918 34.2465 158.898 34.2188C158.696 33.9673 158.533 33.6872 158.412 33.3876Z" fill="white"/>
<path d="M58.658 36.4188L59.0811 43.0938H59.1868C59.3967 42.386 59.663 41.6962 59.9831 41.0313L62.2724 36.4188H66.0051L66.565 43.0938H66.6707C66.8593 42.4212 67.0963 41.7632 67.3799 41.1251L69.6133 36.4251H74.6647L67.8216 47.6063H63.5851L63.2305 41.5126H63.0687C62.9315 42.0932 62.742 42.6601 62.5026 43.2063L60.3253 47.5813H56.1883L53.6252 36.4188H58.658Z" fill="#005DAB"/>
<path d="M74.304 36.4188H78.976L78.2668 40.1876H81.2404L81.9558 36.4188H86.634L84.5189 47.6063H79.8407L80.5748 43.7188H77.5949L76.8608 47.6063H72.1888L74.304 36.4188Z" fill="#005DAB"/>
<path fill-rule="evenodd" clip-rule="evenodd" d="M91.8473 47.7626C95.9283 47.7626 99.6485 45.6313 100.327 42.0438L100.32 42.0251C100.986 38.5126 98.087 36.2251 94.0309 36.2251C89.9748 36.2251 86.2235 38.4376 85.5454 42.0251C84.8673 45.6126 87.7663 47.7626 91.8473 47.7626ZM92.5191 44.2564C91.0509 44.2564 90.1862 43.3564 90.4288 42.1064H90.4226C90.7463 40.7716 91.9683 39.8561 93.3341 39.9251C94.8769 39.9251 95.6483 40.9189 95.4243 42.1064C95.1039 43.4366 93.8786 44.3433 92.5191 44.2564Z" fill="#005DAB"/>
<path d="M101.39 36.4188H106.249L104.812 44.0126H108.887L108.209 47.6063H99.2752L101.39 36.4188Z" fill="#005DAB"/>
<path d="M120.371 43.6L120.589 43.7625C121.399 44.4024 122.394 44.762 123.425 44.7875C123.904 44.7875 124.67 44.625 124.794 44.1188C124.918 43.6125 124.259 43.5688 123.83 43.4938L122.884 43.3438C121.018 43.0625 119.624 42.1313 119.954 40.375C120.458 37.725 123.624 36.2375 126.53 36.2375C127.942 36.2037 129.338 36.542 130.579 37.2188L128.713 40.0813C127.93 39.5474 127.009 39.2542 126.063 39.2375C125.64 39.2375 124.993 39.375 124.906 39.8313C124.819 40.2875 125.422 40.3063 125.777 40.3813L126.834 40.5875C128.819 40.975 130.132 41.8938 129.771 43.7938C129.267 46.4625 126.113 47.7813 123.22 47.7813C121.521 47.7785 119.841 47.4298 118.281 46.7563L120.365 43.6H120.371Z" fill="#005DAB"/>
<path fill-rule="evenodd" clip-rule="evenodd" d="M127.687 47.6063H132.825L133.478 46.2126H137.143L137.323 47.6063H142.468L139.818 36.425H134.449L127.687 47.6063ZM136.857 41.5875L137.049 43.5563L135.108 43.5625L136.639 40.15H136.813C136.803 40.6296 136.817 41.1095 136.857 41.5875Z" fill="#005DAB"/>
<path d="M144.173 36.4188H149.025L147.588 44.0126H151.663L150.991 47.6063H142.057L144.173 36.4188Z" fill="#005DAB"/>
<path d="M154.001 36.4188H162.985L162.406 39.4751H158.313L158.114 40.5438H161.852L161.299 43.4501H157.56L157.355 44.5501H161.591L161.013 47.6063H151.886L154.001 36.4188Z" fill="#005DAB"/>
<path d="M88.1334 16.325L94.2673 16.0938L89.1225 33.1188H100.121L105.266 16.0938L111.251 16.325L113.696 8.24377H90.5782L88.1334 16.325Z" fill="#E51937"/>
<path fill-rule="evenodd" clip-rule="evenodd" d="M46.1726 33.5125C55.4046 33.5125 63.8528 28.725 65.3645 20.7437H65.3707C66.8762 12.925 60.313 7.84375 51.1183 7.84375C41.9237 7.84375 33.3697 12.925 31.8954 20.7437C30.3588 28.725 36.9406 33.5125 46.1726 33.5125ZM47.7029 25.6562C44.3747 25.6562 42.4213 23.7125 42.9687 20.875L42.9438 20.8875C43.454 18.2375 46.0855 16.025 49.563 16.025C53.0406 16.025 54.7949 18.2375 54.2848 20.875C53.7373 23.7125 51.0312 25.6562 47.7029 25.6562Z" fill="#E51937"/>
<path d="M61.949 31.2376C65.4943 32.735 69.3009 33.5083 73.1468 33.5126C79.6914 33.5126 86.8331 30.5751 87.9778 24.6376C88.7927 20.4126 85.8191 18.3876 81.3275 17.5126L78.9262 17.0501C78.1174 16.8814 76.7737 16.7501 76.9541 15.8001C77.147 14.7751 78.6089 14.4814 79.5732 14.4814C81.7157 14.5152 83.8035 15.166 85.5889 16.3564L89.7819 9.98761C86.969 8.50372 83.8256 7.76584 80.6494 7.84386C74.0675 7.84386 66.8885 11.1439 65.75 17.0501C64.9973 20.9439 68.2384 23.0189 72.3879 23.6501L74.5341 23.9814C75.5046 24.1439 76.9292 24.2439 76.7177 25.3689C76.5062 26.4939 74.7021 26.8501 73.6072 26.8501C71.2791 26.796 69.0284 25.9993 67.1809 24.5751L66.6894 24.2126L61.949 31.2376Z" fill="#E51937"/>
<path d="M135.102 8.86254C132.771 8.18242 130.356 7.83939 127.929 7.84379C119.058 7.84379 110.996 13.65 109.596 20.9063C108.227 28 113.913 33.5125 122.542 33.5125C124.508 33.5125 128.657 33.2188 130.561 32.525L132.676 23.2188C130.723 24.6809 128.362 25.4898 125.926 25.5313C122.635 25.5313 120.19 23.4188 120.719 20.6813C121.248 17.9438 124.346 15.8313 127.637 15.8313C129.871 15.8823 132.005 16.7746 133.615 18.3313L135.121 8.86254H135.102Z" fill="#E51937"/>
<path fill-rule="evenodd" clip-rule="evenodd" d="M133.485 20.7437C134.996 12.925 143.519 7.84375 152.708 7.84375H152.732C161.927 7.84375 168.49 12.925 166.985 20.7437C165.448 28.7312 157.056 33.5125 147.793 33.5125C138.53 33.5125 131.948 28.7312 133.485 20.7437ZM155.855 20.875C156.372 18.2375 154.63 16.025 151.133 16.025C147.65 16.025 145.049 18.2375 144.539 20.875C143.992 23.7125 145.939 25.6562 149.273 25.6562C152.608 25.6562 155.308 23.7125 155.855 20.875Z" fill="#E51937"/>
<path d="M34.7319 3.28125C31.8153 2.4518 28.7986 2.03115 25.7674 2.03125C14.7064 2.04375 4.65318 9.0625 2.8864 17.8375C1.2005 26.4125 8.28626 33.075 19.0611 33.075C21.5122 33.075 26.6943 32.7187 29.0583 31.8812L31.696 20.6312C29.2428 22.4048 26.3072 23.3799 23.2852 23.425C19.1793 23.425 16.131 20.8687 16.7904 17.5625C17.4498 14.2562 21.3069 11.7 25.4128 11.7C28.1873 11.755 30.8446 12.834 32.878 14.7312L34.7443 3.28125H34.7319Z" fill="#E51937"/>
<path fill-rule="evenodd" clip-rule="evenodd" d="M162.369 30.3375C161.372 30.3013 160.477 30.9462 160.191 31.9063C160.03 32.7813 160.726 33.4813 161.778 33.4813C162.776 33.5145 163.67 32.8675 163.955 31.9063C164.117 31.0375 163.414 30.3375 162.369 30.3375ZM162.294 30.7438C163.097 30.7438 163.594 31.2063 163.464 31.9063H163.47C163.282 32.6338 162.605 33.1229 161.859 33.0688C161.037 33.0688 160.552 32.6063 160.689 31.9063C160.867 31.1751 161.547 30.6823 162.294 30.7438ZM162.767 32.7313H162.282L161.977 32.0375H161.66L161.529 32.7313H161.118L161.429 31.0875H162.381C162.804 31.0875 163.003 31.2063 162.954 31.5938C162.906 31.8498 162.684 32.036 162.425 32.0375L162.773 32.7313H162.767ZM162.562 31.5438C162.531 31.7188 162.35 31.7188 162.145 31.7188H161.691L161.753 31.4H162.201C162.23 31.4 162.258 31.3994 162.285 31.3989C162.458 31.3953 162.589 31.3926 162.562 31.5438Z" fill="#CF0A2C"/>
<path d="M3.67657 47.6251H55.1432V47.6063H55.0996L54.4464 44.7626H3.67657V47.6251Z" fill="#005DAB"/>
<path d="M3.67657 43.5563H54.1727L53.5133 40.7001H3.67657V43.5563Z" fill="#005DAB"/>
<path d="M3.67657 39.4751H53.2209L52.9969 38.4313L52.5428 36.4438H3.67657V39.4751Z" fill="#005DAB"/>
<path d="M111.226 36.4188H120.209L119.631 39.4751H115.537L115.338 40.5438H119.071L118.523 43.4501H114.784L114.579 44.5501H118.816L118.237 47.6063H109.111L111.226 36.4188Z" fill="#005DAB"/>
</svg>
