<svg width="12" height="20" viewBox="0 0 12 20" fill="none" xmlns="http://www.w3.org/2000/svg">
<path d="M11.4217 18.4429L2.69767 10.0002L11.421 1.5583C11.6215 1.3643 11.6311 1.05897 11.4424 0.876302L10.6736 0.131639C10.4855 -0.0516932 10.17 -0.0423599 9.96954 0.152306L0.903817 8.92559L0.156377 9.64892L0.134333 9.67025C0.0530442 9.74892 0.0158445 9.85158 0.0075779 9.95758C0.00620013 9.97225 0.00068888 9.98625 0 10.0009C0 10.0136 0.00482207 10.0256 0.00619984 10.0382C0.0130887 10.1462 0.0509774 10.2509 0.133644 10.3309L0.155688 10.3522L0.903128 11.0756L9.96817 19.8482C10.1686 20.0422 10.4841 20.0515 10.6729 19.8689L11.4424 19.1242C11.6318 18.9422 11.6222 18.6369 11.4217 18.4429Z" fill="#333333"/>
</svg>
