<svg width="11" height="16" viewBox="0 0 11 16" fill="none" xmlns="http://www.w3.org/2000/svg">
<path d="M10.1606 7.96945C10.1551 7.88305 10.1248 7.79931 10.0587 7.73531L10.0411 7.71825L9.4431 7.13958L2.19103 0.121446C2.03066 -0.0337542 1.77825 -0.0412208 1.62724 0.104912L1.0122 0.700646C0.860648 0.846246 0.868364 1.09051 1.02874 1.24571L8.00801 7.99985L1.02929 14.7534C0.868915 14.9086 0.861199 15.1529 1.0122 15.299L1.62779 15.8948C1.77825 16.0414 2.03066 16.034 2.19103 15.8782L9.44365 8.85958L10.0416 8.28091L10.0592 8.26385C10.1243 8.20091 10.154 8.11878 10.1606 8.03398C10.1617 8.02225 10.1662 8.01105 10.1667 7.99931C10.1656 7.98918 10.1617 7.97958 10.1606 7.96945Z" fill="black"/>
<mask id="mask0" style="mask-type:alpha" maskUnits="userSpaceOnUse" x="0" y="0" width="11" height="16">
<path d="M10.1606 7.96945C10.1551 7.88305 10.1248 7.79931 10.0587 7.73531L10.0411 7.71825L9.4431 7.13958L2.19103 0.121446C2.03066 -0.0337542 1.77825 -0.0412208 1.62724 0.104912L1.0122 0.700646C0.860648 0.846246 0.868364 1.09051 1.02874 1.24571L8.00801 7.99985L1.02929 14.7534C0.868915 14.9086 0.861199 15.1529 1.0122 15.299L1.62779 15.8948C1.77825 16.0414 2.03066 16.034 2.19103 15.8782L9.44365 8.85958L10.0416 8.28091L10.0592 8.26385C10.1243 8.20091 10.154 8.11878 10.1606 8.03398C10.1617 8.02225 10.1662 8.01105 10.1667 7.99931C10.1656 7.98918 10.1617 7.97958 10.1606 7.96945Z" fill="white"/>
</mask>
<g mask="url(#mask0)">
<path fill-rule="evenodd" clip-rule="evenodd" d="M0.891602 0H10.1716V16H0.891602V0Z" fill="#3071A9"/>
</g>
</svg>
