<svg width="21" height="12" viewBox="0 0 21 12" fill="none" xmlns="http://www.w3.org/2000/svg">
<path d="M2.06202 11.4217L10.5046 2.69767L18.9466 11.421C19.1406 11.6215 19.4459 11.6311 19.6286 11.4424L20.3732 10.6736C20.5566 10.4855 20.5472 10.17 20.3526 9.96954L11.5793 0.903817L10.856 0.156377L10.8346 0.134333C10.756 0.0530442 10.6533 0.0158445 10.5473 0.0075779C10.5326 0.00620013 10.5186 0.00068888 10.504 0C10.4913 0 10.4793 0.00482207 10.4666 0.00619984C10.3586 0.0130887 10.254 0.0509774 10.174 0.133644L10.1526 0.155688L9.42931 0.903128L0.656689 9.96817C0.46269 10.1686 0.453358 10.4841 0.636023 10.6729L1.38069 11.4424C1.56269 11.6318 1.86802 11.6222 2.06202 11.4217Z" fill="#333333"/>
</svg>
