<?xml version="1.0" encoding="UTF-8"?>
<svg width="24px" height="24px" viewBox="0 0 24 24" version="1.1" xmlns="http://www.w3.org/2000/svg" xmlns:xlink="http://www.w3.org/1999/xlink">
    <title>Visual/Icons/Cart/Square</title>
    <defs>
        <path d="M17.5,17.5 C18.3284271,17.5 19,18.1715729 19,19 C19,19.8284271 18.3284271,20.5 17.5,20.5 C16.6715729,20.5 16,19.8284271 16,19 C16,18.1715729 16.6715729,17.5 17.5,17.5 Z M9.5,17.5 C10.3284271,17.5 11,18.1715729 11,19 C11,19.8284271 10.3284271,20.5 9.5,20.5 C8.67157288,20.5 8,19.8284271 8,19 C8,18.1715729 8.67157288,17.5 9.5,17.5 Z M4.84963095,3 C5.13368404,2.99934933 5.31893605,3.14884105 5.38913681,3.38646108 L5.38913681,3.38646108 L6.0053435,5.78420389 C6.0053435,5.78420389 10.7445911,5.78463371 14.8484518,5.78500011 L20.7390535,5.78550949 C21.3838605,5.78550949 21.6256632,6.04597761 21.4384611,6.75361529 L21.4384611,6.75361529 L19.8667441,13.4415747 C19.8283936,13.7098765 19.5982911,13.9083284 19.3278882,13.9057172 L19.3278882,13.9057172 L7.93001441,13.9057172 L8.23811775,15.2981444 C8.31286856,15.6643665 8.63657208,15.9241818 9.02657632,15.917001 L9.02657632,15.917001 L18.6538309,15.917001 C18.9333339,15.917001 19.1744865,16.1598435 19.1744865,16.4588269 C19.1738365,16.7578104 18.9333339,17 18.6356307,17 L18.6356307,17 L8.93167529,17 C8.13866667,16.9693183 7.27350728,16.2806119 7.16040605,15.3758279 L7.16040605,15.3758279 L6.69825103,13.3645441 L4.38812594,4.08300113 L2.53950586,4.08300113 C2.24180263,4.08300113 2,3.84081148 2,3.54182803 C2,3.24284458 2.24115262,3 2.53885585,3 L2.53885585,3 Z" id="path-1"></path>
    </defs>
    <g id="Visual/Icons/Cart/Square" stroke="none" stroke-width="1" fill="none" fill-rule="evenodd">
        <mask id="mask-2" fill="white">
            <use xlink:href="#path-1"></use>
        </mask>
        <use id="🎨-Icon-Color" fill="#333333" xlink:href="#path-1"></use>
    </g>
</svg>