<svg width="16" height="17" viewBox="0 0 16 17" fill="none" xmlns="http://www.w3.org/2000/svg">
<path fill-rule="evenodd" clip-rule="evenodd" d="M12.5863 1.8335H3.41301C2.26412 1.8335 1.33301 2.76461 1.33301 3.9135V13.0868C1.33301 14.2357 2.26412 15.1668 3.41301 15.1668H12.5863C13.7352 15.1668 14.6663 14.2357 14.6663 13.0868V3.9135C14.6663 2.76461 13.7352 1.8335 12.5863 1.8335ZM12.1441 6.80505L7.41301 11.5402C7.2299 11.7317 6.9259 11.7384 6.73434 11.5548C6.72945 11.5499 3.99967 8.82016 3.99967 8.82016C3.80812 8.63661 3.80145 8.33305 3.98501 8.1415C3.9899 8.13661 4.79967 7.32683 4.79967 7.32683C4.98278 7.13527 5.28678 7.12861 5.47834 7.31216C5.48323 7.31705 7.09301 8.92683 7.09301 8.92683L10.6663 5.3535C10.8499 5.16194 11.1326 5.12994 11.3206 5.31705C11.3641 5.36016 12.1397 6.14016 12.1397 6.14016C12.3512 6.3735 12.3241 6.6215 12.1441 6.80505Z" fill="#3071A9"/>
<mask id="mask0" style="mask-type:alpha" maskUnits="userSpaceOnUse" x="1" y="1" width="14" height="15">
<path fill-rule="evenodd" clip-rule="evenodd" d="M12.5863 1.8335H3.41301C2.26412 1.8335 1.33301 2.76461 1.33301 3.9135V13.0868C1.33301 14.2357 2.26412 15.1668 3.41301 15.1668H12.5863C13.7352 15.1668 14.6663 14.2357 14.6663 13.0868V3.9135C14.6663 2.76461 13.7352 1.8335 12.5863 1.8335ZM12.1441 6.80505L7.41301 11.5402C7.2299 11.7317 6.9259 11.7384 6.73434 11.5548C6.72945 11.5499 3.99967 8.82016 3.99967 8.82016C3.80812 8.63661 3.80145 8.33305 3.98501 8.1415C3.9899 8.13661 4.79967 7.32683 4.79967 7.32683C4.98278 7.13527 5.28678 7.12861 5.47834 7.31216C5.48323 7.31705 7.09301 8.92683 7.09301 8.92683L10.6663 5.3535C10.8499 5.16194 11.1326 5.12994 11.3206 5.31705C11.3641 5.36016 12.1397 6.14016 12.1397 6.14016C12.3512 6.3735 12.3241 6.6215 12.1441 6.80505Z" fill="white"/>
</mask>
<g mask="url(#mask0)">
</g>
</svg>
