<?xml version="1.0" encoding="UTF-8"?>
<svg width="24px" height="24px" viewBox="0 0 24 24" version="1.1" xmlns="http://www.w3.org/2000/svg" xmlns:xlink="http://www.w3.org/1999/xlink">
    <title>Visual/Icons/Chevron/Right</title>
    <defs>
        <path d="M17.5715939,11.9617506 C17.5647051,11.8537512 17.5268164,11.7490852 17.4441502,11.6690856 L17.4221059,11.6477524 L16.6746657,10.9244232 L7.60962836,2.15180642 C7.40916283,1.95780752 7.09365351,1.94847424 6.90489903,2.13113987 L6.13610341,2.8758023 C5.94666004,3.05780126 5.95630443,3.36313286 6.15676995,3.55713176 L14.8808092,11.9997504 L6.15745884,20.4417024 C5.95699331,20.6357013 5.94734892,20.9410329 6.13610341,21.1236985 L6.90558792,21.8683609 C7.09365351,22.0516932 7.40916283,22.0423599 7.60962836,21.8476944 L16.6753546,13.0744109 L17.4227948,12.3510817 L17.4448391,12.3297485 C17.5261275,12.2510823 17.5633273,12.1484162 17.5715939,12.0424168 C17.5729717,12.0277502 17.5784828,12.0137503 17.5791716,11.9990837 C17.5777939,11.9864171 17.5729717,11.9744172 17.5715939,11.9617506 Z" id="path-1"></path>
    </defs>
    <g id="Visual/Icons/Chevron/Right" stroke="none" stroke-width="1" fill="none" fill-rule="evenodd">
        <mask id="mask-2" fill="white">
            <use xlink:href="#path-1"></use>
        </mask>
        <use id="🎨-Icon-Color" fill="#333333" xlink:href="#path-1"></use>
    </g>
</svg>