<?xml version="1.0" encoding="UTF-8"?>
<svg width="24px" height="24px" viewBox="0 0 24 24" version="1.1" xmlns="http://www.w3.org/2000/svg" xmlns:xlink="http://www.w3.org/1999/xlink">
    <title>Visual/Icons/Chevron/Left</title>
    <defs>
        <path d="M17.4217128,20.4428682 L8.69767354,12.0002496 L17.4210239,3.55829763 C17.6214894,3.36429873 17.6311338,3.05896713 17.4423794,2.87630151 L16.6735837,2.13163907 C16.4855181,1.94830678 16.1700088,1.95764006 15.9695433,2.15230562 L6.90381708,10.9255891 L6.15637689,11.6489183 L6.13433257,11.6702515 C6.05304414,11.7489177 6.01584435,11.8515838 6.00757773,11.9575832 C6.00619996,11.9722498 6.00068888,11.9862497 6,12.0009163 C6,12.0135829 6.00482219,12.0255828 6.00619996,12.0382494 C6.01308881,12.1462488 6.05097749,12.2509148 6.13364368,12.3309144 L6.155688,12.3522476 L6.9031282,13.0755768 L15.9681655,21.8481936 C16.168631,22.0421925 16.4841404,22.0515258 16.6728948,21.8688601 L17.4423794,21.1241977 C17.6318227,20.9421987 17.6221783,20.6368671 17.4217128,20.4428682 Z" id="path-1"></path>
    </defs>
    <g id="Visual/Icons/Chevron/Left" stroke="none" stroke-width="1" fill="none" fill-rule="evenodd">
        <mask id="mask-2" fill="white">
            <use xlink:href="#path-1"></use>
        </mask>
        <use id="🎨-Icon-Color" fill="#333333" xlink:href="#path-1"></use>
    </g>
</svg>