<svg width="20" height="12" viewBox="0 0 20 12" fill="none" xmlns="http://www.w3.org/2000/svg">
<path fill-rule="evenodd" clip-rule="evenodd" d="M19.8686 1.34237L19.1239 0.626346C18.9419 0.450064 18.6366 0.45968 18.4433 0.646218L9.99995 8.76351L1.55797 0.645577C1.36397 0.45968 1.05864 0.450705 0.875971 0.625705L0.131973 1.34237C-0.0520267 1.51737 -0.0420268 1.81096 0.151973 1.9975L8.92529 10.4334L9.64795 11.1282L9.66995 11.1488C9.74795 11.2244 9.85129 11.2597 9.95729 11.2667C9.97195 11.268 9.98595 11.2731 10.0006 11.2738C10.0133 11.2731 10.0253 11.2686 10.0373 11.2674C10.1453 11.2609 10.2506 11.2257 10.3306 11.1488L10.352 11.1282L11.0753 10.4334L19.8479 1.99814C20.0419 1.81096 20.0519 1.51737 19.8686 1.34237Z" fill="#3071A9"/>
</svg>
