<?xml version="1.0" encoding="UTF-8"?>
<svg width="24px" height="24px" viewBox="0 0 24 24" version="1.1" xmlns="http://www.w3.org/2000/svg" xmlns:xlink="http://www.w3.org/1999/xlink">
    <title>Visual/Icons/Chevron/Down</title>
    <defs>
        <path d="M21.8686,7.34237034 L21.1239348,6.62634614 C20.9419352,6.45006444 20.6366025,6.4596798 20.4432695,6.64621789 L11.9999531,14.7635093 L3.55797002,6.64557687 C3.3639704,6.4596798 3.05863768,6.45070546 2.87597138,6.62570511 L2.13197287,7.34237034 C1.94797324,7.51736999 1.95797322,7.81095915 2.15197283,7.99749724 L10.9252886,16.4333778 L11.6479538,17.1282482 L11.6699538,17.148761 C11.7479536,17.2244018 11.8512867,17.2596582 11.9572865,17.2667094 C11.9719532,17.2679915 11.9859531,17.2731197 12.0006198,17.2737607 C12.0132864,17.2731197 12.0252864,17.2686325 12.0372864,17.2673505 C12.1452862,17.2609402 12.2506193,17.2256839 12.3306191,17.148761 L12.3519524,17.1282482 L13.0752843,16.4333778 L21.8479334,7.99813826 C22.041933,7.81095915 22.051933,7.51736999 21.8686,7.34237034 Z" id="path-1"></path>
    </defs>
    <g id="Visual/Icons/Chevron/Down" stroke="none" stroke-width="1" fill="none" fill-rule="evenodd">
        <mask id="mask-2" fill="white">
            <use xlink:href="#path-1"></use>
        </mask>
        <use id="🎨-Icon-Color" fill="#333333" xlink:href="#path-1"></use>
    </g>
</svg>