<?xml version="1.0" encoding="UTF-8"?>
<svg width="24px" height="24px" viewBox="0 0 24 24" version="1.1" xmlns="http://www.w3.org/2000/svg" xmlns:xlink="http://www.w3.org/1999/xlink">
    <title>Visual/Icons/Chevron/Up</title>
    <defs>
        <path d="M21.8481898,15.7764608 L13.0746874,7.34040081 L12.3513401,6.64551562 L12.3300064,6.62500241 C12.2513382,6.54935993 12.1486695,6.51410284 12.0426675,6.50705142 C12.0280005,6.50576934 12.0140003,6.50064104 11.9993333,6.5 C11.9866664,6.50064104 11.9746662,6.5051283 11.9619993,6.50641038 C11.8539972,6.51282076 11.7493285,6.54807785 11.669327,6.62500241 L11.6479932,6.64551562 L10.9246459,7.34040081 L2.15181021,15.7758198 C1.95780647,15.9623618 1.94847295,16.2559572 2.13114314,16.4316017 L2.87582416,17.1476411 C3.05782767,17.3239265 3.36316688,17.314311 3.55717062,17.1277689 L12,9.01030479 L20.4421627,17.12841 C20.6361664,17.314311 20.9415057,17.3239265 21.1241758,17.1482821 L21.8688569,16.4322427 C22.051527,16.2572393 22.0421935,15.9636439 21.8481898,15.7764608 Z" id="path-1"></path>
    </defs>
    <g id="Visual/Icons/Chevron/Up" stroke="none" stroke-width="1" fill="none" fill-rule="evenodd">
        <mask id="mask-2" fill="white">
            <use xlink:href="#path-1"></use>
        </mask>
        <use id="🎨-Icon-Color" fill="#333333" xlink:href="#path-1"></use>
    </g>
</svg>