<svg width="26" height="26" viewBox="0 0 26 26" fill="none" xmlns="http://www.w3.org/2000/svg">
<path d="M24.12 0.900391H1.87917C1.1175 0.900391 0.5 1.51789 0.5 2.28039V24.5204C0.5 25.2829 1.1175 25.9004 1.87917 25.9004H13.8525V16.2196H10.595V12.4471H13.8525V9.66372C13.8525 6.43456 15.825 4.67706 18.705 4.67706C20.085 4.67706 21.2708 4.77956 21.6167 4.82539V8.20039H19.6192C18.0525 8.20039 17.7492 8.94456 17.7492 10.0379V12.4471H21.485L20.9983 16.2196H17.7492V25.9004H24.12C24.8825 25.9004 25.5 25.2829 25.5 24.5204V2.28039C25.5 1.51789 24.8825 0.900391 24.12 0.900391Z" fill="#3B5998"/>
<mask id="mask0" style="mask-type:alpha" maskUnits="userSpaceOnUse" x="0" y="0" width="26" height="26">
<path d="M24.12 0.900391H1.87917C1.1175 0.900391 0.5 1.51789 0.5 2.28039V24.5204C0.5 25.2829 1.1175 25.9004 1.87917 25.9004H13.8525V16.2196H10.595V12.4471H13.8525V9.66372C13.8525 6.43456 15.825 4.67706 18.705 4.67706C20.085 4.67706 21.2708 4.77956 21.6167 4.82539V8.20039H19.6192C18.0525 8.20039 17.7492 8.94456 17.7492 10.0379V12.4471H21.485L20.9983 16.2196H17.7492V25.9004H24.12C24.8825 25.9004 25.5 25.2829 25.5 24.5204V2.28039C25.5 1.51789 24.8825 0.900391 24.12 0.900391Z" fill="white"/>
</mask>
<g mask="url(#mask0)">
</g>
</svg>
