<svg width="5" height="8" viewBox="0 0 5 8" fill="none" xmlns="http://www.w3.org/2000/svg">
<path d="M4.57653 3.98685C4.57409 3.94867 4.5607 3.91167 4.53147 3.88338L4.52368 3.87584L4.25942 3.6201L1.05444 0.518515C0.983566 0.449926 0.872016 0.446627 0.805282 0.511209L0.533471 0.774487C0.466493 0.838833 0.469903 0.946784 0.540778 1.01537L3.62519 4.00029L0.541022 6.98497C0.470146 7.05356 0.466737 7.16151 0.533471 7.22609L0.805525 7.48937C0.872016 7.55419 0.983566 7.55089 1.05444 7.48206L4.25966 4.38024L4.52392 4.1245L4.53171 4.11696C4.56045 4.08915 4.57361 4.05285 4.57653 4.01537C4.57701 4.01019 4.57896 4.00524 4.57921 4.00005C4.57872 3.99558 4.57701 3.99133 4.57653 3.98685Z" fill="#333333"/>
</svg>
