<svg width="26" height="26" viewBox="0 0 26 26" fill="none" xmlns="http://www.w3.org/2000/svg">
<path d="M12.9761 0.900391C6.07274 0.900391 0.476074 6.49706 0.476074 13.4004C0.476074 18.5187 3.55357 22.9162 7.95774 24.8487C7.92274 23.9762 7.95107 22.9279 8.17524 21.9787C8.41524 20.9637 9.78441 15.1679 9.78441 15.1679C9.78441 15.1679 9.38524 14.3696 9.38524 13.1896C9.38524 11.3371 10.4586 9.95372 11.7961 9.95372C12.9327 9.95372 13.4819 10.8071 13.4819 11.8304C13.4819 12.9737 12.7527 14.6829 12.3786 16.2662C12.0652 17.5921 13.0436 18.6737 14.3511 18.6737C16.7194 18.6737 18.3144 15.6329 18.3144 12.0279C18.3144 9.28872 16.4694 7.23789 13.1136 7.23789C9.32191 7.23789 6.95941 10.0646 6.95941 13.2246C6.95941 14.3137 7.28107 15.0812 7.78357 15.6754C8.01441 15.9487 8.04607 16.0587 7.96274 16.3721C7.90357 16.6021 7.76524 17.1562 7.70774 17.3754C7.62441 17.6921 7.36857 17.8054 7.08191 17.6887C5.33524 16.9754 4.52274 15.0629 4.52274 12.9129C4.52274 9.36206 7.51774 5.10456 13.4569 5.10456C18.2294 5.10456 21.3702 8.55872 21.3702 12.2654C21.3702 17.1696 18.6444 20.8321 14.6252 20.8321C13.2761 20.8321 12.0061 20.1029 11.5711 19.2746C11.5711 19.2746 10.8461 22.1546 10.6919 22.7104C10.4269 23.6737 9.90858 24.6371 9.43357 25.3887C10.5577 25.7196 11.7452 25.9004 12.9761 25.9004C19.8786 25.9004 25.4761 20.3037 25.4761 13.4004C25.4761 6.49706 19.8786 0.900391 12.9761 0.900391Z" fill="#BD081C"/>
<mask id="mask0" style="mask-type:alpha" maskUnits="userSpaceOnUse" x="0" y="0" width="26" height="26">
<path d="M12.9761 0.900391C6.07274 0.900391 0.476074 6.49706 0.476074 13.4004C0.476074 18.5187 3.55357 22.9162 7.95774 24.8487C7.92274 23.9762 7.95107 22.9279 8.17524 21.9787C8.41524 20.9637 9.78441 15.1679 9.78441 15.1679C9.78441 15.1679 9.38524 14.3696 9.38524 13.1896C9.38524 11.3371 10.4586 9.95372 11.7961 9.95372C12.9327 9.95372 13.4819 10.8071 13.4819 11.8304C13.4819 12.9737 12.7527 14.6829 12.3786 16.2662C12.0652 17.5921 13.0436 18.6737 14.3511 18.6737C16.7194 18.6737 18.3144 15.6329 18.3144 12.0279C18.3144 9.28872 16.4694 7.23789 13.1136 7.23789C9.32191 7.23789 6.95941 10.0646 6.95941 13.2246C6.95941 14.3137 7.28107 15.0812 7.78357 15.6754C8.01441 15.9487 8.04607 16.0587 7.96274 16.3721C7.90357 16.6021 7.76524 17.1562 7.70774 17.3754C7.62441 17.6921 7.36857 17.8054 7.08191 17.6887C5.33524 16.9754 4.52274 15.0629 4.52274 12.9129C4.52274 9.36206 7.51774 5.10456 13.4569 5.10456C18.2294 5.10456 21.3702 8.55872 21.3702 12.2654C21.3702 17.1696 18.6444 20.8321 14.6252 20.8321C13.2761 20.8321 12.0061 20.1029 11.5711 19.2746C11.5711 19.2746 10.8461 22.1546 10.6919 22.7104C10.4269 23.6737 9.90858 24.6371 9.43357 25.3887C10.5577 25.7196 11.7452 25.9004 12.9761 25.9004C19.8786 25.9004 25.4761 20.3037 25.4761 13.4004C25.4761 6.49706 19.8786 0.900391 12.9761 0.900391Z" fill="white"/>
</mask>
<g mask="url(#mask0)">
</g>
</svg>
