<svg width="28" height="28" viewBox="0 0 28 28" fill="none" xmlns="http://www.w3.org/2000/svg">
<path fill-rule="evenodd" clip-rule="evenodd" d="M15.3273 2.33337C10.4833 2.33337 6.54297 6.06993 6.54297 10.6613C6.54297 13.1899 7.74217 15.4549 9.62452 16.9832L4.19797 24.146C4.01074 24.3926 4.05793 24.7278 4.30241 24.895L5.30045 25.5748C5.54571 25.7413 5.89618 25.6752 6.08264 25.4286L11.5749 18.1795C12.7146 18.6928 13.9834 18.9892 15.3273 18.9892C20.1712 18.9892 24.1116 15.2534 24.1116 10.6605C24.1116 6.06993 20.1705 2.33337 15.3273 2.33337ZM15.3273 17.0011C11.64 17.0011 8.64044 14.1575 8.64044 10.6613C8.64044 7.16587 11.64 4.32223 15.3273 4.32223C19.0146 4.32223 22.0142 7.16587 22.0142 10.6613C22.0142 14.1575 19.0146 17.0011 15.3273 17.0011Z" fill="#333333"/>
<mask id="mask0" mask-type="alpha" maskUnits="userSpaceOnUse" x="4" y="2" width="21" height="24">
<path fill-rule="evenodd" clip-rule="evenodd" d="M15.3273 2.33337C10.4833 2.33337 6.54297 6.06993 6.54297 10.6613C6.54297 13.1899 7.74217 15.4549 9.62452 16.9832L4.19797 24.146C4.01074 24.3926 4.05793 24.7278 4.30241 24.895L5.30045 25.5748C5.54571 25.7413 5.89618 25.6752 6.08264 25.4286L11.5749 18.1795C12.7146 18.6928 13.9834 18.9892 15.3273 18.9892C20.1712 18.9892 24.1116 15.2534 24.1116 10.6605C24.1116 6.06993 20.1705 2.33337 15.3273 2.33337ZM15.3273 17.0011C11.64 17.0011 8.64044 14.1575 8.64044 10.6613C8.64044 7.16587 11.64 4.32223 15.3273 4.32223C19.0146 4.32223 22.0142 7.16587 22.0142 10.6613C22.0142 14.1575 19.0146 17.0011 15.3273 17.0011Z" fill="white"/>
</mask>
<g mask="url(#mask0)">
</g>
</svg>
