<svg width="16" height="30" viewBox="0 0 16 30" fill="none" xmlns="http://www.w3.org/2000/svg">
<path d="M-1.11925 27.6643L11.9566 15.0004L-1.11821 2.33745C-1.41868 2.04645 -1.43313 1.58845 -1.15022 1.31445L0.00207424 0.197459C0.283954 -0.0775399 0.756849 -0.0635399 1.05731 0.228458L14.6453 13.3884L15.7656 14.4734L15.7987 14.5054C15.9205 14.6234 15.9763 14.7774 15.9886 14.9364C15.9907 14.9584 15.999 14.9794 16 15.0014C16 15.0204 15.9928 15.0384 15.9907 15.0574C15.9804 15.2194 15.9236 15.3764 15.7997 15.4964L15.7666 15.5284L14.6464 16.6134L1.05938 29.7723C0.758915 30.0633 0.286017 30.0773 0.00310612 29.8033L-1.15022 28.6863C-1.43417 28.4133 -1.41971 27.9553 -1.11925 27.6643Z" fill="#333333"/>
</svg>
