<svg width="15" height="12" viewBox="0 0 15 12" fill="none" xmlns="http://www.w3.org/2000/svg">
<path d="M14.729 1.83868L13.4129 0.522577C13.2325 0.34198 13.013 0.251648 12.755 0.251648C12.4968 0.251648 12.2773 0.34198 12.0969 0.522577L5.74838 6.88064L2.90321 4.02577C2.72254 3.84511 2.5032 3.75488 2.24522 3.75488C1.98707 3.75488 1.76773 3.84511 1.58707 4.02577L0.270963 5.34191C0.0902984 5.52254 0 5.74195 0 6.00007C0 6.25798 0.0902984 6.47759 0.270963 6.65819L3.77413 10.1613L5.09033 11.4774C5.2709 11.6581 5.4903 11.7483 5.74838 11.7483C6.00637 11.7483 6.22577 11.6579 6.40644 11.4774L7.72261 10.1613L14.729 3.15489C14.9095 2.97422 15 2.75485 15 2.49673C15.0001 2.23875 14.9095 2.01935 14.729 1.83868Z" fill="white"/>
</svg>
