<svg width="26" height="21" viewBox="0 0 26 21" fill="none" xmlns="http://www.w3.org/2000/svg">
<path d="M25.4744 3.15817C24.5528 3.54269 23.5662 3.80034 22.5279 3.91781C23.587 3.32185 24.4011 2.37738 24.7828 1.25202C23.7929 1.80335 22.6954 2.20588 21.528 2.42202C20.5922 1.48539 19.259 0.900391 17.7833 0.900391C14.9509 0.900391 12.6553 3.05871 12.6553 5.71902C12.6553 6.09649 12.7003 6.46378 12.7886 6.8162C8.52637 6.61571 4.74746 4.69703 2.21846 1.78063C1.77432 2.4925 1.521 3.32106 1.521 4.20444C1.521 5.87722 2.42678 7.35108 3.80335 8.21566C2.96257 8.1906 2.17096 7.97445 1.48017 7.61421C1.48017 7.63457 1.48017 7.65415 1.48017 7.67373C1.48017 10.0083 3.24839 11.9559 5.59407 12.4007C5.16409 12.5104 4.71163 12.5691 4.24249 12.5691C3.91251 12.5691 3.59253 12.5393 3.27839 12.4845C3.93084 14.3985 5.82572 15.7925 8.0689 15.8309C6.31402 17.1246 4.10333 17.8944 1.70016 17.8944C1.28519 17.8944 0.877714 17.8717 0.476074 17.8271C2.74592 19.1944 5.43991 19.9932 8.33888 19.9932C17.7716 19.9932 22.9296 12.649 22.9296 6.27818C22.9296 6.06987 22.9254 5.86155 22.9146 5.65481C23.917 4.97583 24.7845 4.12691 25.4727 3.15974L25.4744 3.15817Z" fill="#55ACEE"/>
<mask id="mask0" style="mask-type:alpha" maskUnits="userSpaceOnUse" x="0" y="0" width="26" height="20">
<path d="M25.4744 3.15817C24.5528 3.54269 23.5662 3.80034 22.5279 3.91781C23.587 3.32185 24.4011 2.37738 24.7828 1.25202C23.7929 1.80335 22.6954 2.20588 21.528 2.42202C20.5922 1.48539 19.259 0.900391 17.7833 0.900391C14.9509 0.900391 12.6553 3.05871 12.6553 5.71902C12.6553 6.09649 12.7003 6.46378 12.7886 6.8162C8.52637 6.61571 4.74746 4.69703 2.21846 1.78063C1.77432 2.4925 1.521 3.32106 1.521 4.20444C1.521 5.87722 2.42678 7.35108 3.80335 8.21566C2.96257 8.1906 2.17096 7.97445 1.48017 7.61421C1.48017 7.63457 1.48017 7.65415 1.48017 7.67373C1.48017 10.0083 3.24839 11.9559 5.59407 12.4007C5.16409 12.5104 4.71163 12.5691 4.24249 12.5691C3.91251 12.5691 3.59253 12.5393 3.27839 12.4845C3.93084 14.3985 5.82572 15.7925 8.0689 15.8309C6.31402 17.1246 4.10333 17.8944 1.70016 17.8944C1.28519 17.8944 0.877714 17.8717 0.476074 17.8271C2.74592 19.1944 5.43991 19.9932 8.33888 19.9932C17.7716 19.9932 22.9296 12.649 22.9296 6.27818C22.9296 6.06987 22.9254 5.86155 22.9146 5.65481C23.917 4.97583 24.7845 4.12691 25.4727 3.15974L25.4744 3.15817Z" fill="white"/>
</mask>
<g mask="url(#mask0)">
</g>
</svg>
