<svg width="20" height="20" viewBox="0 0 20 20" fill="none" xmlns="http://www.w3.org/2000/svg">
<path fill-rule="evenodd" clip-rule="evenodd" d="M18.1659 16.6098L11.5554 9.99989L18.1653 3.38995C18.3803 3.17495 18.3903 2.83718 18.1886 2.63551L17.3648 1.81108C17.1625 1.60997 16.8242 1.61997 16.6092 1.83496L10.0004 8.44491L3.39099 1.83496C3.17544 1.61997 2.83767 1.60941 2.63545 1.81108L1.81212 2.63551C1.60934 2.83718 1.62101 3.17606 1.8349 3.38995L8.44484 9.99989L1.83545 16.6098C1.62045 16.8248 1.61045 17.1626 1.81212 17.3637L2.636 18.1876C2.83711 18.3904 3.176 18.3793 3.38988 18.1654L10.0004 11.5549L16.6103 18.1648C16.8253 18.3798 17.1631 18.3898 17.3648 18.1876L18.1881 17.3643C18.3903 17.1626 18.3809 16.8243 18.1659 16.6098Z" fill="white"/>
<mask id="mask0" style="mask-type:alpha" maskUnits="userSpaceOnUse" x="1" y="1" width="18" height="18">
<path fill-rule="evenodd" clip-rule="evenodd" d="M18.1659 16.6098L11.5554 9.99989L18.1653 3.38995C18.3803 3.17495 18.3903 2.83718 18.1886 2.63551L17.3648 1.81108C17.1625 1.60997 16.8242 1.61997 16.6092 1.83496L10.0004 8.44491L3.39099 1.83496C3.17544 1.61997 2.83767 1.60941 2.63545 1.81108L1.81212 2.63551C1.60934 2.83718 1.62101 3.17606 1.8349 3.38995L8.44484 9.99989L1.83545 16.6098C1.62045 16.8248 1.61045 17.1626 1.81212 17.3637L2.636 18.1876C2.83711 18.3904 3.176 18.3793 3.38988 18.1654L10.0004 11.5549L16.6103 18.1648C16.8253 18.3798 17.1631 18.3898 17.3648 18.1876L18.1881 17.3643C18.3903 17.1626 18.3809 16.8243 18.1659 16.6098Z" fill="white"/>
</mask>
<g mask="url(#mask0)">
</g>
</svg>
