<?xml version="1.0" encoding="UTF-8"?>
<svg width="24px" height="24px" viewBox="0 0 24 24" version="1.1" xmlns="http://www.w3.org/2000/svg" xmlns:xlink="http://www.w3.org/1999/xlink">
    <title>Visual/Icons/Close</title>
    <defs>
        <path d="M21.7986481,19.9319977 L13.8660504,12.0000666 L21.7979814,4.0681356 C22.0559792,3.81013785 22.0679791,3.40480804 21.8259812,3.16281014 L20.8373231,2.17348541 C20.5946585,1.93215417 20.1886621,1.94415407 19.9306643,2.20215183 L12.0000666,10.1340829 L4.06880222,2.20215183 C3.8101378,1.94415407 3.40480799,1.93148751 3.16214343,2.17348541 L2.17415202,3.16281014 C1.93082081,3.40480804 1.94482068,3.81147117 2.20148512,4.0681356 L10.1334162,12.0000666 L2.20215178,19.9319977 C1.94415402,20.1899954 1.93215413,20.5953253 2.17415202,20.8366565 L3.16281009,21.8253146 C3.40414133,22.0686458 3.81080446,22.0553126 4.0674689,21.7986481 L12.0000666,13.8660504 L19.9319976,21.7979815 C20.1899954,22.0559792 20.5953252,22.0679791 20.8373231,21.8253146 L21.8253145,20.8373231 C22.0679791,20.5953253 22.0566458,20.1893288 21.7986481,19.9319977 Z" id="path-1"></path>
    </defs>
    <g id="Visual/Icons/Close" stroke="none" stroke-width="1" fill="none" fill-rule="evenodd">
        <mask id="mask-2" fill="white">
            <use xlink:href="#path-1"></use>
        </mask>
        <use id="🎨-Icon-Color" fill="#333333" xlink:href="#path-1"></use>
    </g>
</svg>