<svg width="30" height="30" viewBox="0 0 30 30" fill="none" xmlns="http://www.w3.org/2000/svg">
<path d="M15 0L30 15L15 30L2.60547e-07 15L15 0Z" fill="white" fill-opacity="0.6"/>
<path d="M27.5765 14.9869C27.5741 14.9487 27.5607 14.9117 27.5315 14.8834L27.5237 14.8758L27.2594 14.6201L24.0544 11.5185C23.9836 11.4499 23.872 11.4466 23.8053 11.5112L23.5335 11.7745C23.4665 11.8388 23.4699 11.9468 23.5408 12.0154L26.6252 15.0003L23.541 17.985C23.4701 18.0536 23.4667 18.1615 23.5335 18.2261L23.8055 18.4894C23.872 18.5542 23.9836 18.5509 24.0544 18.4821L27.2597 15.3802L27.5239 15.1245L27.5317 15.117C27.5605 15.0891 27.5736 15.0529 27.5765 15.0154C27.577 15.0102 27.579 15.0052 27.5792 15.0001C27.5787 14.9956 27.577 14.9913 27.5765 14.9869Z" fill="#333333"/>
<path d="M6.31065 17.9854L3.22623 15.0005L6.3104 12.0158C6.38128 11.9472 6.38469 11.8392 6.31795 11.7747L6.04614 11.5114C5.97965 11.4466 5.8681 11.4499 5.79723 11.5187L2.59201 14.6205L2.32775 14.8763L2.31995 14.8838C2.29121 14.9116 2.27806 14.9479 2.27514 14.9854C2.27465 14.9906 2.2727 14.9955 2.27246 15.0007C2.27246 15.0052 2.27417 15.0094 2.27465 15.0139C2.27709 15.0521 2.29048 15.0891 2.31971 15.1174L2.3275 15.1249L2.59176 15.3807L5.79674 18.4822C5.86761 18.5508 5.97916 18.5541 6.0459 18.4895L6.31795 18.2263C6.38493 18.1619 6.38152 18.054 6.31065 17.9854Z" fill="#333333"/>
</svg>
