<svg width="30" height="30" viewBox="0 0 30 30" fill="none" xmlns="http://www.w3.org/2000/svg">
<path d="M15 0L30 15L15 30L2.60547e-07 15L15 0Z" fill="white" fill-opacity="0.6"/>
<path fill-rule="evenodd" clip-rule="evenodd" d="M18.528 18.844L16.5428 16.1311C17.2312 15.5518 17.6696 14.6941 17.6696 13.7357C17.6699 11.9968 16.2286 10.5811 14.4567 10.5811C12.6848 10.5811 11.2432 11.9968 11.2432 13.7354C11.2432 15.4755 12.6851 16.8903 14.4567 16.8903C14.9482 16.8903 15.4124 16.7784 15.8291 16.5836L17.8381 19.3299C17.9064 19.423 18.0345 19.448 18.1239 19.3853L18.4893 19.1278C18.5793 19.0641 18.5963 18.9372 18.528 18.844ZM14.8057 12.3326H14.1079V13.3851H13.0614V14.0866H14.1079V15.1387H14.8057V14.0866H15.8523V13.3851H14.8057V12.3326ZM12.0104 13.7354C12.0104 15.0598 13.1074 16.137 14.4567 16.137C15.8054 16.137 16.9029 15.0598 16.9029 13.7354C16.9029 12.4116 15.8051 11.3344 14.4567 11.3344C13.1074 11.3344 12.0104 12.4116 12.0104 13.7354Z" fill="#333333"/>
<path d="M18.4895 23.9599L18.2262 23.7068C18.1618 23.6445 18.0539 23.6479 17.9855 23.7138L15.0004 26.5837L12.0157 23.7136C11.9471 23.6479 11.8391 23.6447 11.7745 23.7066L11.5115 23.9599C11.4464 24.0218 11.45 24.1256 11.5186 24.1916L14.6204 27.1741L14.8759 27.4198L14.8837 27.427C14.9113 27.4538 14.9478 27.4662 14.9853 27.4687C14.9905 27.4692 14.9954 27.471 15.0006 27.4712C15.0051 27.471 15.0093 27.4694 15.0136 27.4689C15.0517 27.4667 15.089 27.4542 15.1173 27.427L15.1248 27.4198L15.3805 27.1741L18.4821 24.1918C18.5507 24.1256 18.5543 24.0218 18.4895 23.9599Z" fill="#333333"/>
<path d="M18.4822 5.72894L15.3803 2.74635L15.1246 2.50067L15.1171 2.49341C15.0892 2.46667 15.0529 2.4542 15.0155 2.45171C15.0103 2.45126 15.0053 2.44945 15.0001 2.44922C14.9957 2.44945 14.9914 2.45103 14.9869 2.45149C14.9488 2.45375 14.9118 2.46622 14.8835 2.49341L14.8759 2.50067L14.6202 2.74635L11.5185 5.72872C11.4499 5.79467 11.4466 5.89847 11.5112 5.96057L11.7745 6.21373C11.8388 6.27605 11.9468 6.27266 12.0154 6.2067L15.0004 3.33675L17.9851 6.20693C18.0537 6.27266 18.1617 6.27605 18.2263 6.21395L18.4895 5.9608C18.5541 5.89892 18.5508 5.79512 18.4822 5.72894Z" fill="#333333"/>
<path d="M27.5765 14.9869C27.5741 14.9487 27.5607 14.9117 27.5315 14.8834L27.5237 14.8758L27.2594 14.6201L24.0544 11.5185C23.9836 11.4499 23.872 11.4466 23.8053 11.5112L23.5335 11.7745C23.4665 11.8388 23.4699 11.9468 23.5408 12.0154L26.6252 15.0003L23.541 17.985C23.4701 18.0536 23.4667 18.1615 23.5335 18.2261L23.8055 18.4894C23.872 18.5542 23.9836 18.5509 24.0544 18.4821L27.2597 15.3802L27.5239 15.1245L27.5317 15.117C27.5605 15.0891 27.5736 15.0529 27.5765 15.0154C27.577 15.0102 27.579 15.0052 27.5792 15.0001C27.5787 14.9956 27.577 14.9913 27.5765 14.9869Z" fill="#333333"/>
<path d="M6.31065 17.9854L3.22623 15.0005L6.3104 12.0158C6.38128 11.9472 6.38469 11.8392 6.31795 11.7747L6.04614 11.5114C5.97965 11.4466 5.8681 11.4499 5.79723 11.5187L2.59201 14.6205L2.32775 14.8763L2.31995 14.8838C2.29121 14.9116 2.27806 14.9479 2.27514 14.9854C2.27465 14.9906 2.2727 14.9955 2.27246 15.0007C2.27246 15.0052 2.27417 15.0094 2.27465 15.0139C2.27709 15.0521 2.29048 15.0891 2.31971 15.1174L2.3275 15.1249L2.59176 15.3807L5.79674 18.4822C5.86761 18.5508 5.97916 18.5541 6.0459 18.4895L6.31795 18.2263C6.38493 18.1619 6.38152 18.054 6.31065 17.9854Z" fill="#333333"/>
</svg>
