<svg width="17" height="20" viewBox="0 0 17 20" fill="none" xmlns="http://www.w3.org/2000/svg">
<path fill-rule="evenodd" clip-rule="evenodd" d="M16.5798 18.6967L12.1506 12.558C13.6865 11.2473 14.6647 9.30667 14.6647 7.138C14.6653 3.20333 11.4497 0 7.49657 0C3.54342 0 0.327148 3.20333 0.327148 7.13733C0.327148 11.0747 3.54407 14.276 7.49657 14.276C8.59307 14.276 9.62876 14.0227 10.5585 13.582L15.0406 19.796C15.193 20.0067 15.4787 20.0633 15.6781 19.9213L16.4935 19.3387C16.6942 19.1947 16.7321 18.9073 16.5798 18.6967ZM8.27602 3.96302H6.71921V6.34436H4.38432V7.93169H6.71921V10.3124H8.27602V7.93169H10.6109V6.34436H8.27602V3.96302ZM2.04114 7.13745C2.04114 10.1341 4.48849 12.5714 7.49879 12.5714C10.5078 12.5714 12.9564 10.1341 12.9564 7.13745C12.9564 4.14211 10.5071 1.70478 7.49879 1.70478C4.48849 1.70478 2.04114 4.14211 2.04114 7.13745Z" fill="black"/>
<mask id="mask0" style="mask-type:alpha" maskUnits="userSpaceOnUse" x="0" y="0" width="17" height="20">
<path fill-rule="evenodd" clip-rule="evenodd" d="M16.5798 18.6967L12.1506 12.558C13.6865 11.2473 14.6647 9.30667 14.6647 7.138C14.6653 3.20333 11.4497 0 7.49657 0C3.54342 0 0.327148 3.20333 0.327148 7.13733C0.327148 11.0747 3.54407 14.276 7.49657 14.276C8.59307 14.276 9.62876 14.0227 10.5585 13.582L15.0406 19.796C15.193 20.0067 15.4787 20.0633 15.6781 19.9213L16.4935 19.3387C16.6942 19.1947 16.7321 18.9073 16.5798 18.6967ZM8.27602 3.96302H6.71921V6.34436H4.38432V7.93169H6.71921V10.3124H8.27602V7.93169H10.6109V6.34436H8.27602V3.96302ZM2.04114 7.13745C2.04114 10.1341 4.48849 12.5714 7.49879 12.5714C10.5078 12.5714 12.9564 10.1341 12.9564 7.13745C12.9564 4.14211 10.5071 1.70478 7.49879 1.70478C4.48849 1.70478 2.04114 4.14211 2.04114 7.13745Z" fill="white"/>
</mask>
<g mask="url(#mask0)">
<path fill-rule="evenodd" clip-rule="evenodd" d="M0 0H17V20H0V0Z" fill="#333333"/>
</g>
</svg>
